# xmcd
#
# Track frame offsets: 
#        150
#        9448
#        26224
#        88105
#        139269
#        261800
#        301869
#
# Disc length: 4557 seconds
#
# Revision: 1
# Processed by: cddbd v1.5.2PL0 Copyright (c) Steve Scherf et al.
# Submitted via: ExactAudioCopy v0.99pb4
#
DISCID=5511cb07
DTITLE=Return To Forever - Returns
DYEAR=2008
DGENRE=Jazz
TTITLE0=Opening Prayer
TTITLE1=Hymn Of The Seventh Galaxy
TTITLE2=Vulcan Worlds
TTITLE3=Sorceress,
TTITLE4=Song To The Pharoh Kings
TTITLE5=Al's Solo
TTITLE6=No Mystery
EXTD=YEAR: 2008
EXTT0=
EXTT1=
EXTT2=
EXTT3=
EXTT4=
EXTT5=
EXTT6=
PLAYORDER=
